<svg xmlns="http://www.w3.org/2000/svg" width="256" height="256" xml:space="preserve"><g style="stroke:none;stroke-width:0;stroke-dasharray:none;stroke-linecap:butt;stroke-linejoin:miter;stroke-miterlimit:10;fill:none;fill-rule:nonzero;opacity:1"><path d="M59.732 62.121v5.882a2.498 2.498 0 0 1-2.498 2.498h-7.203v8.773c0 1.495-1.808 2.244-2.865 1.186l-9.95-9.959H2.498A2.499 2.499 0 0 1 0 68.003V27.871a2.498 2.498 0 0 1 2.498-2.498h56.91l.324 36.748z" style="stroke:none;stroke-width:1;stroke-dasharray:none;stroke-linecap:butt;stroke-linejoin:miter;stroke-miterlimit:10;fill:#ffde55;fill-rule:nonzero;opacity:1" transform="matrix(2.81 0 0 2.81 1.407 1.407)"/><path d="M90 32.372c0-13.375-11.257-24.121-24.814-23.28-11.617.721-21.071 10.175-21.792 21.791-.842 13.557 9.904 24.815 23.28 24.815.549 0 1.092-.026 1.631-.063l6.946 6.952c1.057 1.058 2.865.309 2.865-1.186v-8.705C85.208 48.695 90 41.095 90 32.372z" style="stroke:none;stroke-width:1;stroke-dasharray:none;stroke-linecap:butt;stroke-linejoin:miter;stroke-miterlimit:10;fill:#f45353;fill-rule:nonzero;opacity:1" transform="matrix(2.81 0 0 2.81 1.407 1.407)"/><path d="M66.674 39.95a2 2 0 0 1-2-2v-1.711c0-.55.227-1.076.627-1.454l5.208-4.917c.901-.929 1.432-2.233 1.432-3.613v-.193a5.225 5.225 0 0 0-1.591-3.771 5.217 5.217 0 0 0-3.815-1.493c-2.827.073-5.127 2.507-5.127 5.428a2 2 0 0 1-4 0c0-5.07 4.048-9.298 9.023-9.427l.246-.003c2.432 0 4.719.928 6.465 2.63a9.194 9.194 0 0 1 2.799 6.636v.193a9.222 9.222 0 0 1-2.625 6.462l-4.642 4.384v.849a2 2 0 0 1-2 2zM66.67 48.946c-.19 0-.39-.02-.58-.06-.19-.03-.38-.091-.56-.17a2.818 2.818 0 0 1-.981-.651c-.56-.55-.88-1.33-.88-2.12s.32-1.56.88-2.12a3.213 3.213 0 0 1 .981-.65c.18-.07.369-.13.56-.17.97-.2 2.01.12 2.7.82.56.56.88 1.33.88 2.12s-.32 1.57-.88 2.12c-.561.56-1.33.881-2.12.881z" style="stroke:none;stroke-width:1;stroke-dasharray:none;stroke-linecap:butt;stroke-linejoin:miter;stroke-miterlimit:10;fill:#ffde55;fill-rule:nonzero;opacity:1" transform="matrix(2.81 0 0 2.81 1.407 1.407)"/><path d="M32.458 38.588H9.445a2 2 0 0 1 0-4h23.014a2 2 0 0 1-.001 4zM35.863 50.503H9.445a2 2 0 0 1 0-4h26.418a2 2 0 0 1 0 4zM44.373 61.567H9.445a2 2 0 0 1 0-4h34.928a2 2 0 0 1 0 4z" style="stroke:none;stroke-width:1;stroke-dasharray:none;stroke-linecap:butt;stroke-linejoin:miter;stroke-miterlimit:10;fill:#f45353;fill-rule:nonzero;opacity:1" transform="matrix(2.81 0 0 2.81 1.407 1.407)"/></g></svg>