<svg xmlns="http://www.w3.org/2000/svg" xmlns:xlink="http://www.w3.org/1999/xlink" version="1.1" width="256" height="256" viewBox="0 0 256 256" xml:space="preserve">

<defs>
</defs>
<g style="stroke: none; stroke-width: 0; stroke-dasharray: none; stroke-linecap: butt; stroke-linejoin: miter; stroke-miterlimit: 10; fill: none; fill-rule: nonzero; opacity: 1;" transform="translate(1.4065934065934016 1.4065934065934016) scale(2.81 2.81)" >
	<path d="M 59.732 62.121 v 5.882 c 0 1.379 -1.118 2.498 -2.498 2.498 h -7.203 v 8.773 c 0 1.495 -1.808 2.244 -2.865 1.186 l -9.95 -9.959 H 2.498 C 1.118 70.5 0 69.382 0 68.003 V 27.871 c 0 -1.379 1.118 -2.498 2.498 -2.498 h 32.431 h 24.479 L 59.732 62.121 z" style="stroke: none; stroke-width: 1; stroke-dasharray: none; stroke-linecap: butt; stroke-linejoin: miter; stroke-miterlimit: 10; fill: rgb(255,222,85); fill-rule: nonzero; opacity: 1;" transform=" matrix(1 0 0 1 0 0) " stroke-linecap="round" />
	<path d="M 90 32.372 c 0 -13.375 -11.257 -24.121 -24.814 -23.28 C 53.569 9.813 44.115 19.267 43.394 30.883 c -0.842 13.557 9.904 24.815 23.28 24.815 c 0.549 0 1.092 -0.026 1.631 -0.063 l 6.946 6.952 c 1.057 1.058 2.865 0.309 2.865 -1.186 v -8.705 C 85.208 48.695 90 41.095 90 32.372 z" style="stroke: none; stroke-width: 1; stroke-dasharray: none; stroke-linecap: butt; stroke-linejoin: miter; stroke-miterlimit: 10; fill: rgb(244,83,83); fill-rule: nonzero; opacity: 1;" transform=" matrix(1 0 0 1 0 0) " stroke-linecap="round" />
	<path d="M 66.674 39.95 c -1.104 0 -2 -0.896 -2 -2 v -1.711 c 0 -0.55 0.227 -1.076 0.627 -1.454 l 5.208 -4.917 c 0.901 -0.929 1.432 -2.233 1.432 -3.613 v -0.193 c 0 -1.432 -0.565 -2.771 -1.591 -3.771 c -1.025 -1 -2.377 -1.531 -3.815 -1.493 c -2.827 0.073 -5.127 2.507 -5.127 5.428 c 0 1.104 -0.896 2 -2 2 s -2 -0.896 -2 -2 c 0 -5.07 4.048 -9.298 9.023 -9.427 c 0.083 -0.002 0.165 -0.003 0.246 -0.003 c 2.432 0 4.719 0.928 6.465 2.63 c 1.805 1.759 2.799 4.116 2.799 6.636 v 0.193 c 0 2.427 -0.933 4.722 -2.625 6.462 l -4.642 4.384 v 0.849 C 68.674 39.054 67.778 39.95 66.674 39.95 z" style="stroke: none; stroke-width: 1; stroke-dasharray: none; stroke-linecap: butt; stroke-linejoin: miter; stroke-miterlimit: 10; fill: rgb(255,222,85); fill-rule: nonzero; opacity: 1;" transform=" matrix(1 0 0 1 0 0) " stroke-linecap="round" />
	<path d="M 66.67 48.946 c -0.19 0 -0.39 -0.02 -0.58 -0.06 c -0.19 -0.03 -0.38 -0.091 -0.56 -0.17 c -0.181 -0.07 -0.36 -0.171 -0.521 -0.271 c -0.17 -0.11 -0.32 -0.24 -0.46 -0.38 c -0.56 -0.55 -0.88 -1.33 -0.88 -2.12 s 0.32 -1.56 0.88 -2.12 c 0.14 -0.14 0.29 -0.26 0.46 -0.37 c 0.16 -0.11 0.34 -0.2 0.521 -0.28 c 0.18 -0.07 0.369 -0.13 0.56 -0.17 c 0.97 -0.2 2.01 0.12 2.7 0.82 c 0.56 0.56 0.88 1.33 0.88 2.12 s -0.32 1.57 -0.88 2.12 C 68.229 48.625 67.46 48.946 66.67 48.946 z" style="stroke: none; stroke-width: 1; stroke-dasharray: none; stroke-linecap: butt; stroke-linejoin: miter; stroke-miterlimit: 10; fill: rgb(255,222,85); fill-rule: nonzero; opacity: 1;" transform=" matrix(1 0 0 1 0 0) " stroke-linecap="round" />
	<path d="M 32.458 38.588 H 9.445 c -1.104 0 -2 -0.896 -2 -2 s 0.896 -2 2 -2 h 23.014 c 1.104 0 2 0.896 2 2 S 33.563 38.588 32.458 38.588 z" style="stroke: none; stroke-width: 1; stroke-dasharray: none; stroke-linecap: butt; stroke-linejoin: miter; stroke-miterlimit: 10; fill: rgb(244,83,83); fill-rule: nonzero; opacity: 1;" transform=" matrix(1 0 0 1 0 0) " stroke-linecap="round" />
	<path d="M 35.863 50.503 H 9.445 c -1.104 0 -2 -0.896 -2 -2 s 0.896 -2 2 -2 h 26.418 c 1.104 0 2 0.896 2 2 S 36.967 50.503 35.863 50.503 z" style="stroke: none; stroke-width: 1; stroke-dasharray: none; stroke-linecap: butt; stroke-linejoin: miter; stroke-miterlimit: 10; fill: rgb(244,83,83); fill-rule: nonzero; opacity: 1;" transform=" matrix(1 0 0 1 0 0) " stroke-linecap="round" />
	<path d="M 44.373 61.567 H 9.445 c -1.104 0 -2 -0.896 -2 -2 s 0.896 -2 2 -2 h 34.928 c 1.104 0 2 0.896 2 2 S 45.478 61.567 44.373 61.567 z" style="stroke: none; stroke-width: 1; stroke-dasharray: none; stroke-linecap: butt; stroke-linejoin: miter; stroke-miterlimit: 10; fill: rgb(244,83,83); fill-rule: nonzero; opacity: 1;" transform=" matrix(1 0 0 1 0 0) " stroke-linecap="round" />
</g>
</svg>