<svg width="41" height="41" viewBox="0 0 41 41" fill="none" xmlns="http://www.w3.org/2000/svg">
<g id="Social Icons" clip-path="url(#clip0_130_598)">
<path id="Vector" d="M20.2838 4.14311C25.6718 4.14311 26.3099 4.16674 28.4288 4.26127C30.3981 4.34791 31.4615 4.67876 32.1705 4.95446C33.1079 5.31681 33.7853 5.75793 34.4864 6.459C35.1953 7.16795 35.6286 7.83751 35.9909 8.7749C36.2666 9.48385 36.5975 10.5551 36.6841 12.5166C36.7787 14.6434 36.8023 15.2815 36.8023 20.6616C36.8023 26.0496 36.7787 26.6877 36.6841 28.8066C36.5975 30.7759 36.2666 31.8393 35.9909 32.5483C35.6286 33.4857 35.1875 34.1631 34.4864 34.8642C33.7774 35.5731 33.1079 36.0064 32.1705 36.3687C31.4615 36.6444 30.3902 36.9753 28.4288 37.0619C26.302 37.1565 25.6639 37.1801 20.2838 37.1801C14.8958 37.1801 14.2577 37.1565 12.1388 37.0619C10.1695 36.9753 9.10605 36.6444 8.3971 36.3687C7.45971 36.0064 6.78228 35.5653 6.0812 34.8642C5.37226 34.1552 4.93901 33.4857 4.57666 32.5483C4.30096 31.8393 3.97011 30.768 3.88347 28.8066C3.78894 26.6798 3.76531 26.0417 3.76531 20.6616C3.76531 15.2736 3.78894 14.6355 3.88347 12.5166C3.97011 10.5473 4.30096 9.48385 4.57666 8.7749C4.93901 7.83751 5.38013 7.16008 6.0812 6.459C6.79015 5.75006 7.45971 5.31681 8.3971 4.95446C9.10605 4.67876 10.1773 4.34791 12.1388 4.26127C14.2577 4.16674 14.8958 4.14311 20.2838 4.14311ZM20.2838 0.511719C14.8091 0.511719 14.1238 0.53535 11.9734 0.629877C9.83075 0.724403 8.35772 1.071 7.08161 1.56726C5.75036 2.08716 4.62392 2.77248 3.50536 3.89891C2.37892 5.01748 1.6936 6.14392 1.17371 7.46729C0.677445 8.75127 0.330848 10.2164 0.236322 12.359C0.141796 14.5174 0.118164 15.2027 0.118164 20.6773C0.118164 26.152 0.141796 26.8373 0.236322 28.9878C0.330848 31.1304 0.677445 32.6034 1.17371 33.8795C1.6936 35.2108 2.37892 36.3372 3.50536 37.4558C4.62392 38.5743 5.75036 39.2675 7.07373 39.7796C8.35772 40.2758 9.82287 40.6224 11.9655 40.7169C14.1159 40.8115 14.8013 40.8351 20.2759 40.8351C25.7506 40.8351 26.4359 40.8115 28.5864 40.7169C30.729 40.6224 32.202 40.2758 33.4781 39.7796C34.8015 39.2675 35.9279 38.5743 37.0465 37.4558C38.165 36.3372 38.8582 35.2108 39.3703 33.8874C39.8665 32.6034 40.2131 31.1383 40.3076 28.9957C40.4022 26.8452 40.4258 26.1599 40.4258 20.6852C40.4258 15.2106 40.4022 14.5253 40.3076 12.3748C40.2131 10.2322 39.8665 8.75915 39.3703 7.48304C38.874 6.14392 38.1887 5.01748 37.0622 3.89891C35.9437 2.78035 34.8172 2.08716 33.4939 1.57514C32.2099 1.07888 30.7447 0.73228 28.6021 0.637754C26.4438 0.53535 25.7585 0.511719 20.2838 0.511719Z" fill="white"/>
<path id="Vector_2" d="M20.2838 10.3184C14.565 10.3184 9.92529 14.958 9.92529 20.6769C9.92529 26.3957 14.565 31.0354 20.2838 31.0354C26.0027 31.0354 30.6423 26.3957 30.6423 20.6769C30.6423 14.958 26.0027 10.3184 20.2838 10.3184ZM20.2838 27.3961C16.5736 27.3961 13.5646 24.387 13.5646 20.6769C13.5646 16.9667 16.5736 13.9576 20.2838 13.9576C23.994 13.9576 27.0031 16.9667 27.0031 20.6769C27.0031 24.387 23.994 27.3961 20.2838 27.3961Z" fill="white"/>
<path id="Vector_3" d="M33.4704 9.91049C33.4704 11.2496 32.3833 12.3288 31.0521 12.3288C29.713 12.3288 28.6338 11.2417 28.6338 9.91049C28.6338 8.57137 29.7208 7.49219 31.0521 7.49219C32.3833 7.49219 33.4704 8.57924 33.4704 9.91049Z" fill="white"/>
</g>
<defs>
<clipPath id="clip0_130_598">
<rect width="40.3313" height="40.3313" fill="white" transform="translate(0.118164 0.511719)"/>
</clipPath>
</defs>
</svg>
