<svg width="41" height="41" viewBox="0 0 41 41" fill="none" xmlns="http://www.w3.org/2000/svg">
<g id="Social Icons">
<path id="Vector" d="M37.8481 30.2221C31.6025 27.1978 30.6071 22.5285 30.5628 22.1821C30.5092 21.7626 30.4484 21.4328 30.9111 21.006C31.3573 20.5937 33.3368 19.3682 33.886 18.9847C34.7938 18.3498 35.1936 17.7159 34.8989 16.9366C34.6928 16.3975 34.191 16.1945 33.6624 16.1945C33.4956 16.195 33.3295 16.2136 33.1667 16.2501C32.1693 16.4666 31.2006 16.9665 30.6401 17.1015C30.5727 17.1189 30.5035 17.1283 30.434 17.1294C30.1352 17.1294 30.0218 16.9964 30.0507 16.6367C30.1207 15.5461 30.2691 13.4176 30.097 11.4293C29.8611 8.69364 28.979 7.33819 27.9331 6.13942C27.4271 5.55807 25.0777 3.06055 20.5437 3.06055C16.0098 3.06055 13.6634 5.55807 13.1606 6.13221C12.1116 7.33098 11.2305 8.68643 10.9966 11.4221C10.8245 13.4104 10.9791 15.5379 11.043 16.6294C11.0636 16.9717 10.9585 17.1221 10.6597 17.1221C10.5901 17.121 10.5209 17.1116 10.4536 17.0943C9.89403 16.9593 8.92541 16.4594 7.92793 16.2429C7.76522 16.2064 7.59903 16.1878 7.43228 16.1873C6.9016 16.1873 6.40183 16.3934 6.19574 16.9294C5.90104 17.7087 6.29879 18.3426 7.20971 18.9775C7.75894 19.361 9.73843 20.5855 10.1846 20.9988C10.6463 21.4256 10.5865 21.7554 10.5329 22.1749C10.4886 22.5264 9.49215 27.1958 3.24763 30.2148C2.88182 30.3921 2.25942 30.7673 3.35685 31.3734C5.07977 32.3258 6.22666 32.2238 7.118 32.7979C7.87435 33.2855 7.42713 34.3368 7.97739 34.7162C8.65337 35.1831 10.6514 34.6832 13.2327 35.5356C15.3966 36.2489 16.7115 38.264 20.5489 38.264C24.3863 38.264 25.7393 36.2396 27.8651 35.5356C30.4412 34.6832 32.4434 35.1831 33.1204 34.7162C33.6696 34.3368 33.2234 33.2855 33.9798 32.7979C34.8711 32.2238 36.017 32.3258 37.7409 31.3734C38.8363 30.7745 38.2139 30.3993 37.8481 30.2221Z" fill="white"/>
</g>
</svg>
