<?xml version="1.0" standalone="no"?>
<!DOCTYPE svg PUBLIC "-//W3C//DTD SVG 20010904//EN"
 "http://www.w3.org/TR/2001/REC-SVG-20010904/DTD/svg10.dtd">
<svg version="1.0" xmlns="http://www.w3.org/2000/svg"
 width="300.000000pt" height="140.000000pt" viewBox="0 0 300.000000 140.000000"
 preserveAspectRatio="xMidYMid meet">
<metadata>
Created by potrace 1.10, written by Peter Selinger 2001-2011
</metadata>
<g transform="translate(0.000000,140.000000) scale(0.100000,-0.100000)"
fill="#000000" stroke="none">
<path d="M810 1365 c-1 0 -2 -75 -3 -168 l-2 -167 51 0 51 0 -5 75 c-2 41 -2
75 1 75 4 0 22 -34 41 -75 l35 -75 40 0 c23 0 41 2 41 5 0 3 -16 37 -35 76
l-36 70 31 35 c36 42 38 73 6 111 -23 26 -30 28 -120 33 -53 3 -96 5 -96 5z
m90 -45 c10 -7 11 -10 2 -10 -7 0 -18 -11 -24 -25 -10 -22 -8 -29 12 -50 30
-32 44 -31 76 0 24 24 25 27 10 50 -19 28 -20 35 -6 35 5 0 17 -11 26 -25 16
-24 15 -27 -10 -63 -14 -21 -26 -44 -26 -51 0 -10 -7 -9 -27 4 -25 17 -27 17
-44 -6 -10 -13 -19 -39 -19 -56 0 -23 -5 -33 -15 -33 -12 0 -15 19 -15 114 0
113 3 123 35 125 6 0 17 -4 25 -9z m50 -40 c18 -11 5 -27 -25 -32 -14 -2 -21
3 -23 20 -4 24 20 30 48 12z"/>
<path d="M1100 1271 c0 -110 11 -153 48 -194 70 -75 203 -45 241 55 5 14 11
73 12 130 l2 103 -52 3 -51 3 0 -98 c0 -103 -12 -145 -43 -151 -39 -8 -47 15
-47 134 l0 114 -55 0 -55 0 0 -99z m70 -43 c5 -83 13 -105 50 -135 11 -9 12
-12 2 -13 -26 0 -54 22 -68 55 -18 44 -19 188 -1 183 8 -3 14 -34 17 -90z
m196 67 c3 -14 3 -54 -1 -90 -5 -51 -12 -71 -35 -95 -15 -16 -36 -30 -45 -30
-13 0 -10 8 14 35 26 30 31 45 32 88 1 29 2 59 3 67 2 8 3 23 4 33 3 26 21 21
28 -8z"/>
<path d="M1490 1200 l0 -170 55 0 55 0 0 60 0 60 35 0 35 0 0 -60 0 -60 55 0
55 0 0 170 0 170 -55 0 -55 0 0 -62 0 -63 -35 0 -35 0 0 63 0 62 -55 0 -55 0
0 -170z m70 91 c0 -41 35 -81 71 -81 30 0 68 29 70 55 1 8 3 20 4 25 1 6 3 15
4 20 0 6 8 10 16 10 13 0 15 -20 15 -120 0 -100 -2 -120 -15 -120 -8 0 -15 6
-16 13 -3 52 -38 97 -76 97 -34 0 -73 -43 -73 -79 0 -37 -17 -50 -28 -20 -7
18 -9 138 -3 212 2 30 31 20 31 -12z"/>
<path d="M2358 1300 l-3 -69 -78 66 c-43 36 -79 64 -80 62 -1 -2 -1 -77 1
-166 l3 -163 55 0 56 0 -4 60 c-1 33 -1 60 0 60 2 0 37 -27 78 -60 l74 -60 0
170 0 170 -50 0 -49 0 -3 -70z m64 -27 c2 -87 1 -144 -5 -149 -3 -3 -23 6 -44
20 -20 14 -45 26 -55 26 -21 0 -48 -37 -48 -67 0 -27 -14 -37 -28 -20 -14 17
-15 187 -1 187 6 0 28 -13 49 -30 21 -16 44 -30 52 -30 29 0 50 37 57 103 1 4
6 7 11 7 6 0 11 -21 12 -47z"/>
<path d="M2510 1200 l0 -170 55 0 55 0 0 170 0 170 -55 0 -55 0 0 -170z m70 0
c0 -97 -3 -120 -14 -120 -11 0 -15 18 -18 73 -5 113 1 167 18 167 11 0 14 -22
14 -120z"/>
<path d="M1889 1195 l-86 -165 56 0 57 0 29 60 c16 33 31 60 34 60 3 -1 18
-28 33 -60 l27 -60 55 0 c31 0 56 3 56 6 0 10 -165 324 -170 324 -3 0 -44 -75
-91 -165z m154 -16 c26 -50 45 -95 42 -99 -10 -15 -33 0 -54 35 -11 18 -28 38
-39 44 -17 9 -25 5 -49 -23 -15 -18 -33 -41 -39 -52 -9 -14 -15 -16 -24 -8 -9
9 -1 33 37 103 28 53 54 91 63 91 9 0 35 -37 63 -91z"/>
<path d="M342 969 c-114 -22 -239 -115 -287 -213 -74 -151 -41 -331 82 -447
29 -27 77 -61 105 -74 60 -27 174 -49 218 -43 26 4 45 -7 133 -81 l102 -86
118 -5 c64 -3 117 -3 116 0 0 3 -55 57 -122 120 l-122 115 51 50 c71 69 96
138 97 265 1 123 -23 187 -100 270 -101 110 -246 158 -391 129z m235 -63 c82
-34 146 -94 185 -173 29 -60 33 -76 33 -153 0 -107 -16 -164 -66 -226 -67 -84
-71 -92 -64 -113 3 -12 41 -55 83 -96 63 -61 74 -77 62 -85 -20 -13 -67 -13
-93 1 -11 7 -61 45 -109 85 -96 80 -97 80 -208 88 -142 10 -258 89 -319 216
-22 46 -26 69 -26 140 0 74 4 92 28 138 55 106 150 179 260 202 64 14 171 3
234 -24z"/>
<path d="M389 790 c-90 -16 -159 -92 -167 -185 -4 -45 0 -64 22 -109 39 -79
98 -116 186 -116 60 0 110 24 151 73 59 71 55 210 -9 280 -40 45 -118 69 -183
57z m131 -60 c100 -71 88 -239 -21 -298 -126 -67 -277 57 -239 198 30 112 168
165 260 100z"/>
<path d="M930 760 c0 -294 16 -364 107 -462 78 -83 188 -119 305 -98 122 22
204 88 261 209 30 63 32 72 34 211 2 80 4 193 6 253 l2 107 -127 0 -128 0 0
-232 c0 -129 -5 -250 -10 -270 -14 -49 -52 -78 -101 -78 -86 0 -99 45 -99 348
l0 232 -125 0 -125 0 0 -220z m198 167 c9 -7 12 -61 12 -206 0 -147 4 -210 15
-248 46 -156 221 -147 264 13 6 22 11 127 11 234 1 122 5 199 12 207 7 8 35
13 79 13 67 0 70 -1 80 -27 16 -42 5 -386 -14 -444 -32 -98 -90 -167 -172
-205 -181 -83 -373 7 -429 200 -21 71 -23 461 -3 469 21 9 131 5 145 -6z"/>
<path d="M1850 585 l0 -395 130 0 130 0 0 395 0 395 -130 0 -130 0 0 -395z
m217 351 c12 -12 14 -675 2 -697 -8 -16 -22 -19 -87 -19 -47 0 -83 5 -90 12
-9 9 -12 101 -12 355 0 315 1 343 18 352 19 12 157 10 169 -3z"/>
<path d="M2200 885 l0 -95 201 0 200 0 -19 -27 c-11 -16 -99 -151 -195 -301
l-176 -272 389 0 390 0 0 105 0 105 -176 0 c-97 0 -174 4 -172 8 2 4 79 128
171 276 93 147 171 274 174 282 4 12 -57 14 -391 14 l-396 0 0 -95z m714 47
c2 -4 -65 -120 -150 -257 -85 -136 -154 -254 -154 -260 0 -6 6 -20 14 -31 13
-17 31 -20 173 -24 l158 -5 0 -60 0 -60 -332 -3 c-183 -1 -333 1 -333 4 0 4
67 111 148 238 201 313 189 290 173 320 -15 27 -59 39 -128 36 -21 -1 -84 -2
-140 -1 l-103 1 0 49 c0 30 5 51 13 54 20 9 655 8 661 -1z"/>
</g>
</svg>
