<?xml version="1.0" encoding="utf-8"?><!-- Uploaded to: SVG Repo, www.svgrepo.com, Generator: SVG Repo Mixer Tools -->
<svg fill="#000000" width="800px" height="800px" viewBox="0 0 24 24" id="sunset-3" data-name="Line Color" xmlns="http://www.w3.org/2000/svg" class="icon line-color"><path id="primary" d="M7.37,12.79a2.09,2.09,0,0,1-.23-.29A5.93,5.93,0,0,1,6,9,6,6,0,0,1,18,9a5.93,5.93,0,0,1-1.14,3.5l-.23.3" style="fill: none; stroke: rgb(0, 0, 0); stroke-linecap: round; stroke-linejoin: round; stroke-width: 2;"></path><path id="secondary" d="M9,20.5c1.5,0,1.5.5,3,.5s1.5-.5,3-.5" style="fill: none; stroke: rgb(44, 169, 188); stroke-linecap: round; stroke-linejoin: round; stroke-width: 2;"></path><path id="secondary-2" data-name="secondary" d="M6,17c1.5,0,1.5-.5,3-.5s1.5.5,3,.5,1.5-.5,3-.5,1.5.5,3,.5" style="fill: none; stroke: rgb(44, 169, 188); stroke-linecap: round; stroke-linejoin: round; stroke-width: 2;"></path><path id="secondary-3" data-name="secondary" d="M3,12.5c1.5,0,1.5.5,3,.5s1.5-.5,3-.5,1.5.5,3,.5,1.5-.5,3-.5,1.5.5,3,.5,1.5-.5,3-.5" style="fill: none; stroke: rgb(44, 169, 188); stroke-linecap: round; stroke-linejoin: round; stroke-width: 2;"></path></svg>